<?xml version="1.0" encoding="utf-8"?>
<!-- Generator: Adobe Illustrator 25.0.1, SVG Export Plug-In . SVG Version: 6.00 Build 0)  -->
<svg version="1.1" id="Layer_1" xmlns="http://www.w3.org/2000/svg" xmlns:xlink="http://www.w3.org/1999/xlink" x="0px" y="0px"
	 viewBox="0 0 1000 1000" style="enable-background:new 0 0 1000 1000;" xml:space="preserve">
<style type="text/css">
	.st0{display:none;fill:#FFFFFF;}
	.st1{fill:#FFFFFF;}
	.st2{fill:#F99A00;}
	.st3{fill:#FFC400;}
	.st4{clip-path:url(#SVGID_1_);fill:#E2E2E2;}
	.st5{clip-path:url(#SVGID_2_);fill:#E2E2E2;}
	.st6{clip-path:url(#SVGID_3_);fill:#E2E2E2;}
	.st7{clip-path:url(#SVGID_4_);fill:#E2E2E2;}
	.st8{clip-path:url(#SVGID_5_);fill:#E2E2E2;}
	.st9{clip-path:url(#SVGID_6_);fill:#E2E2E2;}
	.st10{clip-path:url(#SVGID_7_);fill:#E2E2E2;}
	.st11{clip-path:url(#SVGID_8_);fill:#E2E2E2;}
	.st12{clip-path:url(#SVGID_9_);fill:#E2E2E2;}
	.st13{clip-path:url(#SVGID_10_);fill:#E2E2E2;}
	.st14{clip-path:url(#SVGID_11_);fill:#E58800;}
</style>
<rect class="st0" width="1000" height="1000"/>
<g>
	<path class="st1" d="M485.3,764c-5-6.1-12.7-10-21.2-10c-15.1,0-27.4,12.3-27.4,27.4c0,15.1,12.3,27.4,27.4,27.4
		c8.5,0,16.3-4,21.3-10l0,0l0-14.5v-7.4h-29l7.9,11.2h11.1l-0.1,5.4l0,0.1c-2.9,2.6-6.7,4.2-10.9,4.2c-9,0-16.3-7.3-16.3-16.3
		c0-9,7.3-16.3,16.3-16.3c5.3,0,10,2.5,13,6.5L485.3,764z"/>
	<g>
		<polygon class="st1" points="372.1,775.5 359.4,775.5 363.8,786.7 372.1,786.7 		"/>
		<polygon class="st1" points="377.8,754.4 354.3,754.4 354.3,754.3 342.1,754.3 342.1,808 354.3,808 354.3,807.9 377.8,807.9 
			377.8,796.7 354.3,796.7 354.3,786.7 354.3,786.7 354.3,775.5 354.3,775.5 354.3,765.5 377.8,765.5 		"/>
	</g>
	<g>
		<polygon class="st1" points="562.1,775.5 549.4,775.5 553.8,786.7 562.1,786.7 		"/>
		<polygon class="st1" points="567.8,754.4 544.3,754.4 544.3,754.3 532.1,754.3 532.1,808 544.3,808 544.3,807.9 567.8,807.9 
			567.8,796.7 544.3,796.7 544.3,786.7 544.3,786.7 544.3,775.5 544.3,775.5 544.3,765.5 567.8,765.5 		"/>
	</g>
	<g>
		<polygon class="st1" points="505.7,795.5 505.7,754.3 493.5,754.3 493.5,808 505.7,808 		"/>
		<polygon class="st1" points="511.6,796.7 516,807.9 527,807.9 527,796.7 		"/>
	</g>
	<polygon class="st1" points="414.8,754.3 410.1,754.3 410.1,754.3 405.3,754.3 381.7,808 394.9,808 398,801.2 398,801.2 
		403.7,788.7 410.1,774.5 410.1,774.5 410.1,774.5 410.1,774.5 410.1,774.5 417.7,791.4 414.3,791.4 404.2,801.2 410.1,801.2 
		410.1,801.2 422.1,801.2 425.2,808 438.4,808 	"/>
	<g>
		<g>
			<polygon class="st1" points="306.6,774.1 306.6,807.9 294.4,807.9 294.4,768.8 			"/>
			<polygon class="st1" points="294.4,754.3 306.6,754.3 319.5,754.3 319.5,765.5 306.6,765.5 306.6,765.5 294.4,765.5 294.4,765.5 
				281.5,765.5 281.5,754.3 			"/>
		</g>
		<path class="st1" d="M210.2,788.1"/>
		<path class="st1" d="M210.2,784.2"/>
		<path class="st1" d="M220.2,764c-5-6.1-12.7-10-21.2-10c-15.1,0-27.4,12.3-27.4,27.4c0,15.1,12.3,27.4,27.4,27.4
			c8.5,0,16.3-4,21.3-10l0,0l0-14.5v-7.4h-29l7.9,11.2h11.1l-0.1,5.4l0,0.1c-2.9,2.6-6.7,4.2-10.9,4.2c-9,0-16.3-7.3-16.3-16.3
			c0-9,7.3-16.3,16.3-16.3c5.3,0,10,2.5,13,6.5L220.2,764z"/>
		<g>
			<path class="st1" d="M132.2,786.8l-23.5-32.4H96.5V808c0-0.2,12.2,0,12.2,0v-32.5l23.6,32.5h12.2v-4.2L132.2,786.8z"/>
			<polygon class="st1" points="144.5,789.4 144.5,754.3 132.1,754.3 132.2,781.3 			"/>
		</g>
		<g>
			<polygon class="st1" points="240.6,775.6 240.6,775.6 240.6,775.4 240.6,775.2 240.6,775.2 240.6,754.3 228.3,754.3 228.3,808 
				240.6,808 240.6,786.8 240.6,786.8 			"/>
			<polygon class="st1" points="262.8,754.3 262.8,775.6 245.7,775.6 250.1,786.8 262.8,786.8 262.8,808 275,808 275,754.3 			"/>
		</g>
		<polygon class="st1" points="159.6,754.3 153.4,754.3 153.4,808 165.6,808 165.6,762.6 		"/>
	</g>
	<g>
		<g>
			<polygon class="st1" points="658.6,774.3 658.6,808 646.4,808 646.4,768.9 			"/>
			<polygon class="st1" points="646.4,754.5 658.6,754.5 671.5,754.5 671.5,765.6 658.6,765.6 658.6,765.7 646.4,765.7 646.4,765.6 
				633.6,765.6 633.6,754.5 			"/>
		</g>
		<polygon class="st1" points="795,754.5 788.8,754.5 788.8,808.1 801,808.1 801,762.8 		"/>
		<path class="st1" d="M687.7,785.9c0,1.8,0.3,3.6,1,5.2c0.6,1.6,1.5,3,2.6,4.2c1.1,1.2,2.4,2.2,4,2.9c1.5,0.7,3.1,1.1,4.8,1.1v9.4
			c-3.2,0-6.2-0.6-9.1-1.8c-2.8-1.2-5.3-2.9-7.4-5c-2.1-2.1-3.8-4.6-5-7.4c-1.2-2.8-1.8-5.8-1.8-9.1v-31.2h10.9v31.2v0.2V785.9z
			 M723.2,754.4v31.2c0,2.7-0.4,5.3-1.3,7.7c-0.9,2.4-2.1,4.6-3.7,6.6c-1.6,2-3.4,3.7-5.6,5.1c-1.6,1-3.3,1.9-5.1,2.5l-4.8-8.5
			c0.9-0.2,1.8-0.5,2.6-1c1.4-0.7,2.6-1.7,3.6-2.9c1-1.2,1.9-2.6,2.5-4.1c0.6-1.6,0.9-3.2,0.9-5c0-0.1,0-0.1,0-0.1c0,0,0-0.1,0-0.1
			c0-0.2,0-0.2,0-0.1c0,0.1,0,0,0-0.3c0-0.3,0-0.9,0-1.8c0-0.9,0-2.6,0-4.8c0-2.3,0-5.4,0-9.2c0-3.9,0-8.9,0-15H723.2z"/>
		<path class="st1" d="M782,782.4c0,11.3-7.6,25.7-24.8,25.7h-4.6l-5.1-10.9h7.6c11.4,0,14.7-7.2,14.7-14.7
			c0-6.8-4.3-16.9-14.7-16.9h-12.3v42.5h-12.2v-53.7h24.4C772.8,754.4,782,767.8,782,782.4z"/>
		<path class="st1" d="M838.3,797.3c1-0.3,2-0.7,2.9-1.2c1.7-0.9,3.1-2.1,4.3-3.6c1.2-1.5,2.1-3.2,2.8-5.1c0.7-1.9,1-4,1-6.1
			c0-2.2-0.4-4.4-1.1-6.4c-0.7-2-1.8-3.8-3-5.2c-1.3-1.5-2.8-2.7-4.6-3.5c-1.8-0.9-3.8-1.3-5.9-1.3s-4.1,0.4-5.9,1.3
			c-1.8,0.9-3.3,2-4.7,3.5c-1.3,1.5-2.3,3.2-3.1,5.2c-0.7,2-1.1,4.1-1.1,6.4c0,2.2,0.4,4.4,1.1,6.4c0.7,2,1.8,3.8,3.1,5.2
			c1.3,1.5,2.9,2.7,4.7,3.5c1.8,0.9,3.8,1.3,5.9,1.3l0,11.1c-3.8,0-7.3-0.7-10.6-2.1c-3.3-1.4-6.1-3.4-8.5-5.9
			c-2.4-2.5-4.3-5.4-5.6-8.8c-1.4-3.4-2-6.9-2-10.7c0-3.8,0.7-7.4,2-10.7c1.4-3.4,3.2-6.3,5.6-8.8c2.4-2.5,5.2-4.5,8.5-5.9
			c3.3-1.5,6.8-2.2,10.6-2.2s7.3,0.7,10.6,2.2s6.1,3.4,8.5,5.9c2.4,2.5,4.3,5.4,5.6,8.8c1.4,3.4,2,6.9,2,10.7c0,3.2-0.5,6.3-1.5,9.2
			c-1,2.9-2.4,5.6-4.1,7.9c-1.8,2.4-3.9,4.4-6.4,6c-2,1.3-4.1,2.4-6.4,3.1L838.3,797.3z"/>
		<path class="st1" d="M902.2,760.6c0,0-5.7-6.7-16.6-6.7c-12.1,0-19,6.9-19,15.5c0,9.2,10.8,13.6,16.9,16.8c5.6,3,7.8,3.9,7.8,6.4
			c0,2.5-1,4.2-6.6,4.2s-10.3-3.8-10.3-3.8l-9.1,6.6c0,0,7.9,9,19,9c12.5,0,19.2-7.4,19.2-15.9c0-8.5-7.6-12.4-15.4-16.1
			c-7.5-3.6-9.1-5.8-9.1-7.1c0-1.3,0.4-4,5.4-4s8.6,2.9,8.6,2.9L902.2,760.6z"/>
		<path class="st1" d="M629.8,760.6c0,0-5.7-6.7-16.6-6.7c-12.1,0-19,6.9-19,15.5c0,9.2,10.8,13.6,16.9,16.8c5.6,3,7.8,3.9,7.8,6.4
			c0,2.5-1,4.2-6.6,4.2S602,793,602,793l-9.1,6.6c0,0,7.9,9,19,9c12.5,0,19.2-7.4,19.2-15.9c0-8.5-7.6-12.4-15.4-16.1
			c-7.5-3.6-9.1-5.8-9.1-7.1c0-1.3,0.4-4,5.4-4s8.6,2.9,8.6,2.9L629.8,760.6z"/>
	</g>
</g>
<g>
	<path class="st1" d="M414.8,354.1c1.5-3.2-1.6-18.7,28.1-39.6c-1.4,6.2-3.4,13.1,15.8,1.7c22.1-13.2,63.6-29.9,76.4-39.3
		c-1.7,4.4-6.3,13.7,11.4,10.3c23.4-4.4,49.3,0,49.3,0s-80.8,6.2-109.5,55.2c-22,37.7-34.9,62.1-34.9,62.1s3.1-20.1,4.6-33.5
		c1.9-16.6,0.9-23.6-9.8-27.5C439.8,341.2,434.3,340.9,414.8,354.1z"/>
	<path class="st1" d="M686.4,336.1c0,0,11.9,1,23.3-5.9c-30.7,0.7-68.4-19.7-49.5-23.6c-53.9-14.9-107.4-1.4-127,7.8
		c-30.6,14.2-57.2,69.5-57.2,69.5s10-6.5,32.1-3c4.1,0.7,18.2-10.6,18.2-10.6c-2.3,5.6-0.4,13,6.2,18.4c6.2,5.1,33,10,40-7.7
		c5.4-13.8-2.1-22.4-5.7-25.6c4.7-1.5,50.2-11.2,78.8-11.1c46.7,0,76.5,19.5,89.3,34.5C723.8,342.1,686.4,336.1,686.4,336.1z
		 M546.5,371c-3.2,2-4.9,7.6-4.9,7.6s-3.2-6.7,0.7-10.6C546.4,364.2,549.8,369,546.5,371z M563.4,384.7c-8.2,6.7-25.2,6.6-30.2-3.6
		c-3-6.1-2-9.2,0.8-11.9c1.3-0.3,2.7-1.1,3.9-1.5c-2.1,8.1,1.9,18.2,9.7,18.2c9.5,0,12.5-17.3,4.4-24.1c2.1-1.1,2.6-1.4,5.1-2.6
		C570.2,359.1,571.6,377.9,563.4,384.7z M534,369.2c1.3-0.3,2.7-1.1,3.9-1.5c-2.1,8.1,1.9,18.2,9.7,18.2c9.5,0,12.5-17.3,4.4-24.1
		c2.1-1.1,2.6-1.4,5.1-2.6"/>
	<path class="st1" d="M748.9,428.5c-11.1-44.6-29.9-58-57.1-66.5c-24.9-7.7-61.2-11.2-79.3,1.4c-16,11.2-45,47-80.8,34.6
		c-7.9-2.8-14.9-4.7-21.1-5.9c-42.7-8.3-48.5,15.7-58.8,30.8c57.4,1.2,129.4-4.9,165.4-32.2c36-27.3,74.7-9,81.5-1.4
		c-7.3,0.6-15.6,7.2-15.6,7.2S718.3,393.7,748.9,428.5z"/>
	<path class="st1" d="M431.3,466.8c18.7-4.5,38.6-8.4,49.4-4.2c13.3,5.1,16.1,22.6,16.1,22.6s2.7-15,1.7-22.9
		c9.7,6.4,18.5,32.2,18.5,32.2s3.6-12.9,2.5-18.2c16.8,16.5,19.1,26.1,27,39.2c2.9-22.1,5.5-37,5.5-37s16.7,7.3,40.5,38.2
		c-2.7-26.5-8-42.7-8-42.7s20.7,12.8,40,28.7c-5.2-26.6-8.8-40.8-8.8-40.8s17.4-10.5,38.7-7.4c-5.6-12-32.4-18.3-39.5-17.6
		c13.5-3.4,23-13.3,35.2-18.9c-15.6-3.7-21.7-5.5-21.7-5.5s14.6-15.6,54.8-24.4c-13.8-6.4-33.3-9.4-77.7,20.2
		c-7.3,5.9-18.9,10.4-18.9,20.1c0,6,2.3,15.3-10.5,18.3c-12.7,3-52.3-0.1-91.8,4.9C446.4,456.4,431.3,466.8,431.3,466.8z"/>
	<path class="st2" d="M481.1,431.1c-36.1,1.9-36.5,3.4-39.1,0.1c-3.2-4,4.8-46.6,7-60.6c1.9-12.3,3.4-15.7-1.9-19.5
		c-7.1-5.1-13.4-2.2-21.2,3.2c-8.9,6.2-61.2,51.8-67.9,78.5c-9.8,38.8,32.6,81.3,32.6,81.3s-0.7-20.3,3.4-33.8
		c5-16.4,45.8-41.5,140.6-41.9c38-0.2,38-5.3,38-9.5C572.5,421.3,544.4,427.3,481.1,431.1z M418.4,389.2c-1-2.2,2-8.5,3-9
		c1-0.5,7.9,1.3,7.9,4.1c0.2,4.5,0.1,20.3,0.1,20.3S419.4,391.5,418.4,389.2z"/>
	<path class="st1" d="M706.5,410.3c-37.3-13-58.8-1.9-58.8-1.9C676.8,410,683,415,683,415c-9.5,3.5-29.9,14.8-40.1,18.8
		c21.5,5.7,32.5,18.7,35,32.7c-11.2-4.5-30.6-0.7-43.1,0.7c5.9,3.5,89,31,67.3,126c31.5-43.1,38.1-92.4,32.7-108
		c7.7,21.9,11.6,31.5,11.6,31.5C751.7,506.3,764.4,430.5,706.5,410.3z"/>
	<path class="st1" d="M631.3,480.2c0,0,5.4,27.1,5,49.2c-12.1-13.5-24.6-20.7-36.1-28.2c2.2,5.2,1.9,57.6,1.9,57.6
		s-16-38.5-31.8-45.9c12,33.1,15.7,109.7-59.7,167.6c130.3-4,148.5-93.9,148.5-93.9c9.1,15.9,2.8,47,0.5,50.5
		C721,543.2,667.2,489.7,631.3,480.2z"/>
	<path d="M537.9,367.7c-2.1,8.1,1.9,18.2,9.7,18.2c9.5,0,12.5-17.3,4.4-24.1 M546.5,371c-3.2,2-4.9,7.6-4.9,7.6s-3.2-6.7,0.7-10.6
		C546.4,364.2,549.8,369,546.5,371z"/>
	<path class="st1" d="M478.4,470c-2.5,46.6-113.7,140.3-185.8,96.5c54.6,64,141.9,11.3,156.5-12.2c0.5-1,1.4-2,1.9-3
		c-0.4,0.9-0.8,2.1-1.4,3.1c-19.4,36.2-64.8,69.8-108.2,68.6C426.1,661.8,529.5,542.2,478.4,470z"/>
	<path class="st1" d="M556.3,514c1.4,11.3-3.4,34.8-3.4,34.8c-4.2-14.5-27.5-45.4-27.5-45.4s-2.6,13.1-7.1,23.1
		c-5.2-17.2-14.6-36.7-14.6-36.7c9.6,59-23,120.8-70.8,140.9c0,0,53.2-6.6,69.7-37.6c-18.1,34.1-44.9,69.4-89.9,77.3
		C540.4,689.7,579.6,559.8,556.3,514z"/>
	<path class="st1" d="M351.6,566C235.3,577.5,235,409.6,329.3,347.5C279.5,398.4,251.4,539,351.6,566z"/>
	<path class="st1" d="M248.3,467.3c-7.8-168.1,91.6-243.7,244.5-234.4C344.8,257.6,273.4,340.4,248.3,467.3z"/>
	<path class="st1" d="M336.3,247.9c139.7-99.9,323.8-61.7,369.5,65.6C634.7,233.4,533,175,336.3,247.9z"/>
	<path class="st3" d="M547.6,385.9c9.5,0,12.5-17.3,4.4-24.1c2.1-1.1,2.6-1.4,5.1-2.6c13.1-0.2,14.5,18.7,6.2,25.4
		c-8.2,6.7-25.2,6.6-30.2-3.6c-3-6.1-2-9.2,0.8-11.9c1.3-0.3,2.7-1.1,3.9-1.5C535.8,375.7,539.8,385.9,547.6,385.9"/>
	<path class="st1" d="M551.9,361.9 M537.8,367.8 M546.4,371.1c-3.2,2-4.9,7.6-4.9,7.6s-3.2-6.7,0.7-10.6
		C546.3,364.3,549.7,369.1,546.4,371.1z"/>
	<g>
		<defs>
			<path id="SVGID_23_" d="M686.4,336.1c0,0,11.9,1,23.3-5.9c-30.7,0.7-68.4-19.7-49.5-23.6c-53.9-14.9-107.4-1.4-127,7.8
				c-30.6,14.2-57.2,69.5-57.2,69.5s10-6.5,32.1-3c4.1,0.7,18.2-10.6,18.2-10.6c-2.3,5.6-0.4,13,6.2,18.4c6.2,5.1,33,10,40-7.7
				c5.4-13.8-2.1-22.4-5.7-25.6c4.7-1.5,50.2-11.2,78.8-11.1c46.7,0,76.5,19.5,89.3,34.5C723.8,342.1,686.4,336.1,686.4,336.1z
				 M546.5,371c-3.2,2-4.9,7.6-4.9,7.6s-3.2-6.7,0.7-10.6C546.4,364.2,549.8,369,546.5,371z M563.4,384.7
				c-8.2,6.7-25.2,6.6-30.2-3.6c-3-6.1-2-9.2,0.8-11.9c1.3-0.3,2.7-1.1,3.9-1.5c-2.1,8.1,1.9,18.2,9.7,18.2
				c9.5,0,12.5-17.3,4.4-24.1c2.1-1.1,2.6-1.4,5.1-2.6C570.2,359.1,571.6,377.9,563.4,384.7z M534,369.2c1.3-0.3,2.7-1.1,3.9-1.5
				c-2.1,8.1,1.9,18.2,9.7,18.2c9.5,0,12.5-17.3,4.4-24.1c2.1-1.1,2.6-1.4,5.1-2.6"/>
		</defs>
		<clipPath id="SVGID_1_">
			<use xlink:href="#SVGID_23_"  style="overflow:visible;"/>
		</clipPath>
		<path class="st4" d="M511.7,382.1l-35.8,1.8c0,0,31-38.4,68.1-54.5c37.2-16.2,71.8-19.8,86.3-16.1c-14.5,2.1,10.6,20.7,28.1,15.4
			c-5.8,6.9-18.4,7.4-18.4,7.4s38-6.7,61.2,20.3c-31.1-5.3-58.7-6.4-58.7-6.4l-75.9,5.4c-15.3,3.5-28.9,7.1-40.9,15.4L511.7,382.1z"
			/>
	</g>
	<g>
		<defs>
			<path id="SVGID_25_" d="M431.3,466.8c18.7-4.5,38.6-8.4,49.4-4.2c13.3,5.1,16.1,22.6,16.1,22.6s2.7-15,1.7-22.9
				c9.7,6.4,18.5,32.2,18.5,32.2s3.6-12.9,2.5-18.2c16.8,16.5,19.1,26.1,27,39.2c2.9-22.1,5.5-37,5.5-37s16.7,7.3,40.5,38.2
				c-2.7-26.5-8-42.7-8-42.7s20.7,12.8,40,28.7c-5.2-26.6-8.8-40.8-8.8-40.8s17.4-10.5,38.7-7.4c-5.6-12-32.4-18.3-39.5-17.6
				c13.5-3.4,23-13.3,35.2-18.9c-15.6-3.7-21.7-5.5-21.7-5.5s14.6-15.6,54.8-24.4c-13.8-6.4-33.3-9.4-77.7,20.2
				c-7.3,5.9-18.9,10.4-18.9,20.1c0,6,2.3,15.3-10.5,18.3c-12.7,3-52.3-0.1-91.8,4.9C446.4,456.4,431.3,466.8,431.3,466.8z"/>
		</defs>
		<clipPath id="SVGID_2_">
			<use xlink:href="#SVGID_25_"  style="overflow:visible;"/>
		</clipPath>
		<path class="st5" d="M587.2,416.3c0,0,40.4-25.6,57-26.2c-16.2,9-33.8,31.4-33.8,31.4l9.7-0.3c0,0-10.4,9-19.7,11.7
			c7.6,6.6,19.3,12.1,19.3,12.1s-20.7-0.3-25.6,2.4c1.7,6.2,11.1,21.1,11.1,21.1l-30.4-11.7l3.1,21.4c0,0-18-18.6-30.7-19.7
			c-9.3,6.6-6.9,27.6-6.9,27.6l-23.5-28.3l-0.7,14.2c0,0-12.8-18.3-19-15.9c0.7,2.1-1,11.4-1,11.4s-6.6-14.8-51.8-7.6
			c25.9-10.4,38.7-13.5,38.7-13.5h47l36.6-10.7l12.8-5.2L587.2,416.3z"/>
	</g>
	<g>
		<defs>
			<path id="SVGID_27_" d="M414.8,354.1c1.5-3.2-1.6-18.7,28.1-39.6c-1.4,6.2-3.4,13.1,15.8,1.7c22.1-13.2,63.6-29.9,76.4-39.3
				c-1.7,4.4-6.3,13.7,11.4,10.3c23.4-4.4,49.3,0,49.3,0s-80.8,6.2-109.5,55.2c-22,37.7-34.9,62.1-34.9,62.1s3.1-20.1,4.6-33.5
				c1.9-16.6,0.9-23.6-9.8-27.5C439.8,341.2,434.3,340.9,414.8,354.1z"/>
		</defs>
		<clipPath id="SVGID_3_">
			<use xlink:href="#SVGID_27_"  style="overflow:visible;"/>
		</clipPath>
		<path class="st6" d="M451.1,406.6l35.9-61.5c0,0,16.6-29.7,35.9-35.6c-23.8,5.2-37.6,13.5-47.3,21.4c-6.9,6.9-10-3.1-1-10
			c-12.4,4.1-19.7,16.6-33.4,12.3c-5.5-2.8-4.3-7.1-4.3-7.1s-15,8.7-23.5,29.7c12.4-6.6,26.2-11.4,26.2-11.4l11.5,2.4l1.3,36.6
			L451.1,406.6z"/>
	</g>
	<g>
		<defs>
			<path id="SVGID_29_" d="M478.4,470c-2.5,46.6-113.7,140.3-185.8,96.5c54.6,64,141.9,11.3,156.5-12.2c0.5-1,1.4-2,1.9-3
				c-0.4,0.9-0.8,2.1-1.4,3.1c-19.4,36.2-64.8,69.8-108.2,68.6C426.1,661.8,529.5,542.2,478.4,470z"/>
		</defs>
		<clipPath id="SVGID_4_">
			<use xlink:href="#SVGID_29_"  style="overflow:visible;"/>
		</clipPath>
		<path class="st7" d="M477.5,466.2c0,0-3.6,22.3-26.7,51.3c-23.1,29-39.4,38-39.4,38s35.5-6,59.1-33.5
			c-0.3,23.5-10.7,64.6-15.9,74.6c22.1-24.9,40.1-50.1,40.4-77c0.3-26.9-7.6-41.4-7.6-41.4L477.5,466.2z"/>
	</g>
	<g>
		<defs>
			<path id="SVGID_31_" d="M556.3,514c1.4,11.3-3.4,34.8-3.4,34.8c-4.2-14.5-27.5-45.4-27.5-45.4s-2.6,13.1-7.1,23.1
				c-5.2-17.2-14.6-36.7-14.6-36.7c9.6,59-23,120.8-70.8,140.9c0,0,53.2-6.6,69.7-37.6c-18.1,34.1-44.9,69.4-89.9,77.3
				C540.4,689.7,579.6,559.8,556.3,514z"/>
		</defs>
		<clipPath id="SVGID_5_">
			<use xlink:href="#SVGID_31_"  style="overflow:visible;"/>
		</clipPath>
		<path class="st8" d="M501.9,485.4c0,0,8.3,36.3-10.7,79.4c12.1-8.3,20.7-31.1,20.7-31.1s10.2,29.2-5.4,75.7
			c31.5-31.8,28.8-66.5,28.8-66.5s19.1,35.5,8.7,60.7c15.2-17.3,17.6-31.5,20-56.1c2.4-24.5-7.6-38-7.6-38l-6.2,23.8l-25.9-36.3
			l-6.6,12.8L501.9,485.4z"/>
	</g>
	<g>
		<defs>
			<path id="SVGID_33_" d="M631.3,480.2c0,0,5.4,27.1,5,49.2c-12.1-13.5-24.6-20.7-36.1-28.2c2.2,5.2,1.9,57.6,1.9,57.6
				s-16-38.5-31.8-45.9c12,33.1,15.7,109.7-59.7,167.6c130.3-4,148.5-93.9,148.5-93.9c9.1,15.9,2.8,47,0.5,50.5
				C721,543.2,667.2,489.7,631.3,480.2z"/>
		</defs>
		<clipPath id="SVGID_6_">
			<use xlink:href="#SVGID_33_"  style="overflow:visible;"/>
		</clipPath>
		<path class="st9" d="M567.3,508.1c0,0,12,60.8,2.3,89.3c-9.7,28.5-24.5,46.5-24.5,46.5s50.8-32.2,46.6-77.4
			c12.9,27.6,16.6,47.9,16.6,47.9s14.8-60.3,6.6-87.9c25.8,26.2,31.7,52,31.7,52s13.9-35.7,7-61c18.9,7.8,37.6,26.9,37.6,26.9
			s-8.7-54.3-48.3-63.1c-11.5-5.1-15.2-4.6-15.2-4.6l1.8,26.7l-2.8,4.6l-28.5-14.3l-3.2,17l1.4,9.7L574.2,509L567.3,508.1z"/>
	</g>
	<g>
		<defs>
			<path id="SVGID_35_" d="M706.5,410.3c-37.3-13-58.8-1.9-58.8-1.9C676.8,410,683,415,683,415c-9.5,3.5-29.9,14.8-40.1,18.8
				c21.5,5.7,32.5,18.7,35,32.7c-11.2-4.5-30.6-0.7-43.1,0.7c5.9,3.5,89,31,67.3,126c31.5-43.1,38.1-92.4,32.7-108
				c7.7,21.9,11.6,31.5,11.6,31.5C751.7,506.3,764.4,430.5,706.5,410.3z"/>
		</defs>
		<clipPath id="SVGID_7_">
			<use xlink:href="#SVGID_35_"  style="overflow:visible;"/>
		</clipPath>
		<path class="st10" d="M644.2,407.7c0,0,73.2-22.1,89.1,28c-10.7-10.7-40.4-6.6-40.4-6.6s28.8,0.7,27.5,42.5
			c-12.4-9-34-11.6-34-11.6s22.1,47.8,16.2,81.7c-16.9-40.1-36.3-53.2-36.3-53.2l-38-22.8l30.4-6.9l-6.2-13.8l-19.7-11.1l20.4-10.7
			l5.5-1.7L644.2,407.7z"/>
	</g>
	<g>
		<defs>
			<path id="SVGID_37_" d="M336.3,247.9c139.7-99.9,323.8-61.7,369.5,65.6C634.7,233.4,533,175,336.3,247.9z"/>
		</defs>
		<clipPath id="SVGID_8_">
			<use xlink:href="#SVGID_37_"  style="overflow:visible;"/>
		</clipPath>
		<path class="st11" d="M706.3,315c0,0-54-100.5-176.8-106.8c-82.5-4.3-112.6,20.3-112.6,20.3l77-9.3l39.7,1l91.2,30.4L706.3,315z"
			/>
	</g>
	<g>
		<defs>
			<path id="SVGID_39_" d="M248.3,467.3c-7.8-168.1,91.6-243.7,244.5-234.4C344.8,257.6,273.4,340.4,248.3,467.3z"/>
		</defs>
		<clipPath id="SVGID_9_">
			<use xlink:href="#SVGID_39_"  style="overflow:visible;"/>
		</clipPath>
		<path class="st12" d="M495.9,233c0,0-96.7,4.1-143.2,41s-68.6,75.1-72.8,109.1c24.9-43.3,64-78.3,64-78.3L495.9,233z"/>
	</g>
	<g>
		<defs>
			<path id="SVGID_41_" d="M351.6,566C235.3,577.5,235,409.6,329.3,347.5C279.5,398.4,251.4,539,351.6,566z"/>
		</defs>
		<clipPath id="SVGID_10_">
			<use xlink:href="#SVGID_41_"  style="overflow:visible;"/>
		</clipPath>
		<path class="st13" d="M334.7,344.4c0,0-48.3,26.7-59.9,117.9c-10.1,85.2,66.8,87.5,66.8,87.5l-45.1-97.6L334.7,344.4z"/>
	</g>
	<g>
		<defs>
			<path id="SVGID_43_" d="M481.1,431.1c-36.1,1.9-36.5,3.4-39.1,0.1c-3.2-4,4.8-46.6,7-60.6c1.9-12.3,3.4-15.7-1.9-19.5
				c-7.1-5.1-13.4-2.2-21.2,3.2c-8.9,6.2-61.2,51.8-67.9,78.5c-9.8,38.8,32.6,81.3,32.6,81.3s-0.7-20.3,3.4-33.8
				c5-16.4,45.8-41.5,140.6-41.9c38-0.2,38-5.3,38-9.5C572.5,421.3,544.4,427.3,481.1,431.1z M418.4,389.2c-1-2.2,2-8.5,3-9
				c1-0.5,7.9,1.3,7.9,4.1c0.2,4.5,0.1,20.3,0.1,20.3S419.4,391.5,418.4,389.2z"/>
		</defs>
		<clipPath id="SVGID_11_">
			<use xlink:href="#SVGID_43_"  style="overflow:visible;"/>
		</clipPath>
		<path class="st14" d="M379.3,395.9c0,0-21.8,33.3-16.6,55.6c5.4,23,16.9,35.2,16.9,35.2s3.1-25.9,23.1-33.8s95.7-25.2,154.4-15.5
			c-20,2.8-75.6,7.9-75.6,7.9l-59.1,16.6L393.8,523l-33.8-31.8l-11.4-69.1L379.3,395.9z"/>
	</g>
</g>
</svg>
